<svg width="104" height="288" viewBox="0 0 104 288" fill="none" xmlns="http://www.w3.org/2000/svg">
<mask id="mask0_424_1182" style="mask-type:alpha" maskUnits="userSpaceOnUse" x="0" y="0" width="104" height="288">
<rect width="104" height="288" fill="#D9D9D9"/>
</mask>
<g mask="url(#mask0_424_1182)">
<g clip-path="url(#clip0_424_1182)">
<path d="M400 0H0V288H400V0Z" fill="#11100E"/>
<path d="M3.81699 1.9085C3.81699 2.96199 2.96199 3.81699 1.9085 3.81699C0.851189 3.81699 0 2.96199 0 1.9085C0 0.851189 0.851189 0 1.9085 0C2.96199 0 3.81699 0.851189 3.81699 1.9085Z" fill="#A8A1FF"/>
<path d="M17.817 1.9085C17.817 2.96199 16.962 3.81699 15.9085 3.81699C14.8512 3.81699 14 2.96199 14 1.9085C14 0.851189 14.8512 0 15.9085 0C16.962 0 17.817 0.851189 17.817 1.9085Z" fill="#A8A1FF"/>
<path d="M31.817 1.9085C31.817 2.96199 30.962 3.81699 29.9085 3.81699C28.8512 3.81699 28 2.96199 28 1.9085C28 0.851189 28.8512 0 29.9085 0C30.962 0 31.817 0.851189 31.817 1.9085Z" fill="#A8A1FF"/>
<path d="M45.817 1.9085C45.817 2.96199 44.962 3.81699 43.9085 3.81699C42.8512 3.81699 42 2.96199 42 1.9085C42 0.851189 42.8512 0 43.9085 0C44.962 0 45.817 0.851189 45.817 1.9085Z" fill="#A8A1FF"/>
<path d="M59.817 1.9085C59.817 2.96199 58.962 3.81699 57.9085 3.81699C56.8512 3.81699 56 2.96199 56 1.9085C56 0.851189 56.8512 0 57.9085 0C58.962 0 59.817 0.851189 59.817 1.9085Z" fill="#A8A1FF"/>
<path d="M73.817 1.9085C73.817 2.96199 72.962 3.81699 71.9085 3.81699C70.8512 3.81699 70 2.96199 70 1.9085C70 0.851189 70.8512 0 71.9085 0C72.962 0 73.817 0.851189 73.817 1.9085Z" fill="#A8A1FF"/>
<path d="M87.817 1.9085C87.817 2.96199 86.962 3.81699 85.9085 3.81699C84.8512 3.81699 84 2.96199 84 1.9085C84 0.851189 84.8512 0 85.9085 0C86.962 0 87.817 0.851189 87.817 1.9085Z" fill="#A8A1FF"/>
<path d="M101.817 1.9085C101.817 2.96199 100.962 3.81699 99.9085 3.81699C98.8512 3.81699 98 2.96199 98 1.9085C98 0.851189 98.8512 0 99.9085 0C100.962 0 101.817 0.851189 101.817 1.9085Z" fill="#A8A1FF"/>
<path d="M3.81699 15.9085C3.81699 16.962 2.96199 17.817 1.9085 17.817C0.851189 17.817 0 16.962 0 15.9085C0 14.8512 0.851189 14 1.9085 14C2.96199 14 3.81699 14.8512 3.81699 15.9085Z" fill="#A8A1FF"/>
<path d="M17.817 15.9085C17.817 16.962 16.962 17.817 15.9085 17.817C14.8512 17.817 14 16.962 14 15.9085C14 14.8512 14.8512 14 15.9085 14C16.962 14 17.817 14.8512 17.817 15.9085Z" fill="#A8A1FF"/>
<path d="M31.817 15.9085C31.817 16.962 30.962 17.817 29.9085 17.817C28.8512 17.817 28 16.962 28 15.9085C28 14.8512 28.8512 14 29.9085 14C30.962 14 31.817 14.8512 31.817 15.9085Z" fill="#A8A1FF"/>
<path d="M45.817 15.9085C45.817 16.962 44.962 17.817 43.9085 17.817C42.8512 17.817 42 16.962 42 15.9085C42 14.8512 42.8512 14 43.9085 14C44.962 14 45.817 14.8512 45.817 15.9085Z" fill="#A8A1FF"/>
<path d="M59.817 15.9085C59.817 16.962 58.962 17.817 57.9085 17.817C56.8512 17.817 56 16.962 56 15.9085C56 14.8512 56.8512 14 57.9085 14C58.962 14 59.817 14.8512 59.817 15.9085Z" fill="#A8A1FF"/>
<path d="M73.817 15.9085C73.817 16.962 72.962 17.817 71.9085 17.817C70.8512 17.817 70 16.962 70 15.9085C70 14.8512 70.8512 14 71.9085 14C72.962 14 73.817 14.8512 73.817 15.9085Z" fill="#A8A1FF"/>
<path d="M87.817 15.9085C87.817 16.962 86.962 17.817 85.9085 17.817C84.8512 17.817 84 16.962 84 15.9085C84 14.8512 84.8512 14 85.9085 14C86.962 14 87.817 14.8512 87.817 15.9085Z" fill="#A8A1FF"/>
<path d="M101.817 15.9085C101.817 16.962 100.962 17.817 99.9085 17.817C98.8512 17.817 98 16.962 98 15.9085C98 14.8512 98.8512 14 99.9085 14C100.962 14 101.817 14.8512 101.817 15.9085Z" fill="#A8A1FF"/>
<path d="M3.81699 29.9085C3.81699 30.962 2.96199 31.817 1.9085 31.817C0.851189 31.817 0 30.962 0 29.9085C0 28.8512 0.851189 28 1.9085 28C2.96199 28 3.81699 28.8512 3.81699 29.9085Z" fill="#A8A1FF"/>
<path d="M17.817 29.9085C17.817 30.962 16.962 31.817 15.9085 31.817C14.8512 31.817 14 30.962 14 29.9085C14 28.8512 14.8512 28 15.9085 28C16.962 28 17.817 28.8512 17.817 29.9085Z" fill="#A8A1FF"/>
<path d="M31.817 29.9085C31.817 30.962 30.962 31.817 29.9085 31.817C28.8512 31.817 28 30.962 28 29.9085C28 28.8512 28.8512 28 29.9085 28C30.962 28 31.817 28.8512 31.817 29.9085Z" fill="#A8A1FF"/>
<path d="M45.817 29.9085C45.817 30.962 44.962 31.817 43.9085 31.817C42.8512 31.817 42 30.962 42 29.9085C42 28.8512 42.8512 28 43.9085 28C44.962 28 45.817 28.8512 45.817 29.9085Z" fill="#A8A1FF"/>
<path d="M59.817 29.9085C59.817 30.962 58.962 31.817 57.9085 31.817C56.8512 31.817 56 30.962 56 29.9085C56 28.8512 56.8512 28 57.9085 28C58.962 28 59.817 28.8512 59.817 29.9085Z" fill="#A8A1FF"/>
<path d="M73.817 29.9085C73.817 30.962 72.962 31.817 71.9085 31.817C70.8512 31.817 70 30.962 70 29.9085C70 28.8512 70.8512 28 71.9085 28C72.962 28 73.817 28.8512 73.817 29.9085Z" fill="#A8A1FF"/>
<path d="M87.817 29.9085C87.817 30.962 86.962 31.817 85.9085 31.817C84.8512 31.817 84 30.962 84 29.9085C84 28.8512 84.8512 28 85.9085 28C86.962 28 87.817 28.8512 87.817 29.9085Z" fill="#A8A1FF"/>
<path d="M101.817 29.9085C101.817 30.962 100.962 31.817 99.9085 31.817C98.8512 31.817 98 30.962 98 29.9085C98 28.8512 98.8512 28 99.9085 28C100.962 28 101.817 28.8512 101.817 29.9085Z" fill="#A8A1FF"/>
<path d="M3.81699 43.9085C3.81699 44.962 2.96199 45.817 1.9085 45.817C0.851189 45.817 0 44.962 0 43.9085C0 42.8512 0.851189 42 1.9085 42C2.96199 42 3.81699 42.8512 3.81699 43.9085Z" fill="#A8A1FF"/>
<path d="M17.817 43.9085C17.817 44.962 16.962 45.817 15.9085 45.817C14.8512 45.817 14 44.962 14 43.9085C14 42.8512 14.8512 42 15.9085 42C16.962 42 17.817 42.8512 17.817 43.9085Z" fill="#A8A1FF"/>
<path d="M31.817 43.9085C31.817 44.962 30.962 45.817 29.9085 45.817C28.8512 45.817 28 44.962 28 43.9085C28 42.8512 28.8512 42 29.9085 42C30.962 42 31.817 42.8512 31.817 43.9085Z" fill="#A8A1FF"/>
<path d="M45.817 43.9085C45.817 44.962 44.962 45.817 43.9085 45.817C42.8512 45.817 42 44.962 42 43.9085C42 42.8512 42.8512 42 43.9085 42C44.962 42 45.817 42.8512 45.817 43.9085Z" fill="#A8A1FF"/>
<path d="M59.817 43.9085C59.817 44.962 58.962 45.817 57.9085 45.817C56.8512 45.817 56 44.962 56 43.9085C56 42.8512 56.8512 42 57.9085 42C58.962 42 59.817 42.8512 59.817 43.9085Z" fill="#A8A1FF"/>
<path d="M73.817 43.9085C73.817 44.962 72.962 45.817 71.9085 45.817C70.8512 45.817 70 44.962 70 43.9085C70 42.8512 70.8512 42 71.9085 42C72.962 42 73.817 42.8512 73.817 43.9085Z" fill="#A8A1FF"/>
<path d="M87.817 43.9085C87.817 44.962 86.962 45.817 85.9085 45.817C84.8512 45.817 84 44.962 84 43.9085C84 42.8512 84.8512 42 85.9085 42C86.962 42 87.817 42.8512 87.817 43.9085Z" fill="#A8A1FF"/>
<path d="M101.817 43.9085C101.817 44.962 100.962 45.817 99.9085 45.817C98.8512 45.817 98 44.962 98 43.9085C98 42.8512 98.8512 42 99.9085 42C100.962 42 101.817 42.8512 101.817 43.9085Z" fill="#A8A1FF"/>
<path d="M3.81699 57.9085C3.81699 58.962 2.96199 59.817 1.9085 59.817C0.851189 59.817 0 58.962 0 57.9085C0 56.8512 0.851189 56 1.9085 56C2.96199 56 3.81699 56.8512 3.81699 57.9085Z" fill="#A8A1FF"/>
<path d="M17.817 57.9085C17.817 58.962 16.962 59.817 15.9085 59.817C14.8512 59.817 14 58.962 14 57.9085C14 56.8512 14.8512 56 15.9085 56C16.962 56 17.817 56.8512 17.817 57.9085Z" fill="#A8A1FF"/>
<path d="M31.817 57.9085C31.817 58.962 30.962 59.817 29.9085 59.817C28.8512 59.817 28 58.962 28 57.9085C28 56.8512 28.8512 56 29.9085 56C30.962 56 31.817 56.8512 31.817 57.9085Z" fill="#A8A1FF"/>
<path d="M45.817 57.9085C45.817 58.962 44.962 59.817 43.9085 59.817C42.8512 59.817 42 58.962 42 57.9085C42 56.8512 42.8512 56 43.9085 56C44.962 56 45.817 56.8512 45.817 57.9085Z" fill="#A8A1FF"/>
<path d="M3.81699 71.9085C3.81699 72.962 2.96199 73.817 1.9085 73.817C0.851189 73.817 0 72.962 0 71.9085C0 70.8512 0.851189 70 1.9085 70C2.96199 70 3.81699 70.8512 3.81699 71.9085Z" fill="#A8A1FF"/>
<path d="M17.817 71.9085C17.817 72.962 16.962 73.817 15.9085 73.817C14.8512 73.817 14 72.962 14 71.9085C14 70.8512 14.8512 70 15.9085 70C16.962 70 17.817 70.8512 17.817 71.9085Z" fill="#A8A1FF"/>
<path d="M31.817 71.9085C31.817 72.962 30.962 73.817 29.9085 73.817C28.8512 73.817 28 72.962 28 71.9085C28 70.8512 28.8512 70 29.9085 70C30.962 70 31.817 70.8512 31.817 71.9085Z" fill="#A8A1FF"/>
<path d="M45.817 71.9085C45.817 72.962 44.962 73.817 43.9085 73.817C42.8512 73.817 42 72.962 42 71.9085C42 70.8512 42.8512 70 43.9085 70C44.962 70 45.817 70.8512 45.817 71.9085Z" fill="#A8A1FF"/>
<path d="M3.81699 85.9085C3.81699 86.962 2.96199 87.817 1.9085 87.817C0.851189 87.817 0 86.962 0 85.9085C0 84.8512 0.851189 84 1.9085 84C2.96199 84 3.81699 84.8512 3.81699 85.9085Z" fill="#A8A1FF"/>
<path d="M17.817 85.9085C17.817 86.962 16.962 87.817 15.9085 87.817C14.8512 87.817 14 86.962 14 85.9085C14 84.8512 14.8512 84 15.9085 84C16.962 84 17.817 84.8512 17.817 85.9085Z" fill="#A8A1FF"/>
<path d="M31.817 85.9085C31.817 86.962 30.962 87.817 29.9085 87.817C28.8512 87.817 28 86.962 28 85.9085C28 84.8512 28.8512 84 29.9085 84C30.962 84 31.817 84.8512 31.817 85.9085Z" fill="#A8A1FF"/>
<path d="M45.817 85.9085C45.817 86.962 44.962 87.817 43.9085 87.817C42.8512 87.817 42 86.962 42 85.9085C42 84.8512 42.8512 84 43.9085 84C44.962 84 45.817 84.8512 45.817 85.9085Z" fill="#A8A1FF"/>
<path d="M3.81699 99.9085C3.81699 100.962 2.96199 101.817 1.9085 101.817C0.851189 101.817 0 100.962 0 99.9085C0 98.8512 0.851189 98 1.9085 98C2.96199 98 3.81699 98.8512 3.81699 99.9085Z" fill="#A8A1FF"/>
<path d="M17.817 99.9085C17.817 100.962 16.962 101.817 15.9085 101.817C14.8512 101.817 14 100.962 14 99.9085C14 98.8512 14.8512 98 15.9085 98C16.962 98 17.817 98.8512 17.817 99.9085Z" fill="#A8A1FF"/>
<path d="M31.817 99.9085C31.817 100.962 30.962 101.817 29.9085 101.817C28.8512 101.817 28 100.962 28 99.9085C28 98.8512 28.8512 98 29.9085 98C30.962 98 31.817 98.8512 31.817 99.9085Z" fill="#A8A1FF"/>
<path d="M45.817 99.9085C45.817 100.962 44.962 101.817 43.9085 101.817C42.8512 101.817 42 100.962 42 99.9085C42 98.8512 42.8512 98 43.9085 98C44.962 98 45.817 98.8512 45.817 99.9085Z" fill="#A8A1FF"/>
<path d="M3.81699 113.908C3.81699 114.962 2.96199 115.817 1.9085 115.817C0.851189 115.817 0 114.962 0 113.908C0 112.851 0.851189 112 1.9085 112C2.96199 112 3.81699 112.851 3.81699 113.908Z" fill="#A8A1FF"/>
<path d="M17.817 113.908C17.817 114.962 16.962 115.817 15.9085 115.817C14.8512 115.817 14 114.962 14 113.908C14 112.851 14.8512 112 15.9085 112C16.962 112 17.817 112.851 17.817 113.908Z" fill="#A8A1FF"/>
<path d="M31.817 113.908C31.817 114.962 30.962 115.817 29.9085 115.817C28.8512 115.817 28 114.962 28 113.908C28 112.851 28.8512 112 29.9085 112C30.962 112 31.817 112.851 31.817 113.908Z" fill="#A8A1FF"/>
<path d="M45.817 113.908C45.817 114.962 44.962 115.817 43.9085 115.817C42.8512 115.817 42 114.962 42 113.908C42 112.851 42.8512 112 43.9085 112C44.962 112 45.817 112.851 45.817 113.908Z" fill="#A8A1FF"/>
<path d="M3.81699 127.908C3.81699 128.962 2.96199 129.817 1.9085 129.817C0.851189 129.817 0 128.962 0 127.908C0 126.851 0.851189 126 1.9085 126C2.96199 126 3.81699 126.851 3.81699 127.908Z" fill="#A8A1FF"/>
<path d="M17.817 127.908C17.817 128.962 16.962 129.817 15.9085 129.817C14.8512 129.817 14 128.962 14 127.908C14 126.851 14.8512 126 15.9085 126C16.962 126 17.817 126.851 17.817 127.908Z" fill="#A8A1FF"/>
<path d="M31.817 127.908C31.817 128.962 30.962 129.817 29.9085 129.817C28.8512 129.817 28 128.962 28 127.908C28 126.851 28.8512 126 29.9085 126C30.962 126 31.817 126.851 31.817 127.908Z" fill="#A8A1FF"/>
<path d="M45.817 127.908C45.817 128.962 44.962 129.817 43.9085 129.817C42.8512 129.817 42 128.962 42 127.908C42 126.851 42.8512 126 43.9085 126C44.962 126 45.817 126.851 45.817 127.908Z" fill="#A8A1FF"/>
<path d="M3.81699 141.908C3.81699 142.962 2.96199 143.817 1.9085 143.817C0.851189 143.817 0 142.962 0 141.908C0 140.851 0.851189 140 1.9085 140C2.96199 140 3.81699 140.851 3.81699 141.908Z" fill="#A8A1FF"/>
<path d="M17.817 141.908C17.817 142.962 16.962 143.817 15.9085 143.817C14.8512 143.817 14 142.962 14 141.908C14 140.851 14.8512 140 15.9085 140C16.962 140 17.817 140.851 17.817 141.908Z" fill="#A8A1FF"/>
<path d="M31.817 141.908C31.817 142.962 30.962 143.817 29.9085 143.817C28.8512 143.817 28 142.962 28 141.908C28 140.851 28.8512 140 29.9085 140C30.962 140 31.817 140.851 31.817 141.908Z" fill="#A8A1FF"/>
<path d="M45.817 141.908C45.817 142.962 44.962 143.817 43.9085 143.817C42.8512 143.817 42 142.962 42 141.908C42 140.851 42.8512 140 43.9085 140C44.962 140 45.817 140.851 45.817 141.908Z" fill="#A8A1FF"/>
<path d="M3.81699 155.908C3.81699 156.962 2.96199 157.817 1.9085 157.817C0.851189 157.817 0 156.962 0 155.908C0 154.851 0.851189 154 1.9085 154C2.96199 154 3.81699 154.851 3.81699 155.908Z" fill="#A8A1FF"/>
<path d="M17.817 155.908C17.817 156.962 16.962 157.817 15.9085 157.817C14.8512 157.817 14 156.962 14 155.908C14 154.851 14.8512 154 15.9085 154C16.962 154 17.817 154.851 17.817 155.908Z" fill="#A8A1FF"/>
<path d="M31.817 155.908C31.817 156.962 30.962 157.817 29.9085 157.817C28.8512 157.817 28 156.962 28 155.908C28 154.851 28.8512 154 29.9085 154C30.962 154 31.817 154.851 31.817 155.908Z" fill="#A8A1FF"/>
<path d="M45.817 155.908C45.817 156.962 44.962 157.817 43.9085 157.817C42.8512 157.817 42 156.962 42 155.908C42 154.851 42.8512 154 43.9085 154C44.962 154 45.817 154.851 45.817 155.908Z" fill="#A8A1FF"/>
<path d="M3.81699 169.908C3.81699 170.962 2.96199 171.817 1.9085 171.817C0.851189 171.817 0 170.962 0 169.908C0 168.851 0.851189 168 1.9085 168C2.96199 168 3.81699 168.851 3.81699 169.908Z" fill="#A8A1FF"/>
<path d="M17.817 169.908C17.817 170.962 16.962 171.817 15.9085 171.817C14.8512 171.817 14 170.962 14 169.908C14 168.851 14.8512 168 15.9085 168C16.962 168 17.817 168.851 17.817 169.908Z" fill="#A8A1FF"/>
<path d="M31.817 169.908C31.817 170.962 30.962 171.817 29.9085 171.817C28.8512 171.817 28 170.962 28 169.908C28 168.851 28.8512 168 29.9085 168C30.962 168 31.817 168.851 31.817 169.908Z" fill="#A8A1FF"/>
<path d="M45.817 169.908C45.817 170.962 44.962 171.817 43.9085 171.817C42.8512 171.817 42 170.962 42 169.908C42 168.851 42.8512 168 43.9085 168C44.962 168 45.817 168.851 45.817 169.908Z" fill="#A8A1FF"/>
<path d="M3.81699 183.908C3.81699 184.962 2.96199 185.817 1.9085 185.817C0.851189 185.817 0 184.962 0 183.908C0 182.851 0.851189 182 1.9085 182C2.96199 182 3.81699 182.851 3.81699 183.908Z" fill="#A8A1FF"/>
<path d="M17.817 183.908C17.817 184.962 16.962 185.817 15.9085 185.817C14.8512 185.817 14 184.962 14 183.908C14 182.851 14.8512 182 15.9085 182C16.962 182 17.817 182.851 17.817 183.908Z" fill="#A8A1FF"/>
<path d="M31.817 183.908C31.817 184.962 30.962 185.817 29.9085 185.817C28.8512 185.817 28 184.962 28 183.908C28 182.851 28.8512 182 29.9085 182C30.962 182 31.817 182.851 31.817 183.908Z" fill="#A8A1FF"/>
<path d="M45.817 183.908C45.817 184.962 44.962 185.817 43.9085 185.817C42.8512 185.817 42 184.962 42 183.908C42 182.851 42.8512 182 43.9085 182C44.962 182 45.817 182.851 45.817 183.908Z" fill="#A8A1FF"/>
<path d="M3.81699 197.908C3.81699 198.962 2.96199 199.817 1.9085 199.817C0.851189 199.817 0 198.962 0 197.908C0 196.851 0.851189 196 1.9085 196C2.96199 196 3.81699 196.851 3.81699 197.908Z" fill="#A8A1FF"/>
<path d="M17.817 197.908C17.817 198.962 16.962 199.817 15.9085 199.817C14.8512 199.817 14 198.962 14 197.908C14 196.851 14.8512 196 15.9085 196C16.962 196 17.817 196.851 17.817 197.908Z" fill="#A8A1FF"/>
<path d="M31.817 197.908C31.817 198.962 30.962 199.817 29.9085 199.817C28.8512 199.817 28 198.962 28 197.908C28 196.851 28.8512 196 29.9085 196C30.962 196 31.817 196.851 31.817 197.908Z" fill="#A8A1FF"/>
<path d="M45.817 197.908C45.817 198.962 44.962 199.817 43.9085 199.817C42.8512 199.817 42 198.962 42 197.908C42 196.851 42.8512 196 43.9085 196C44.962 196 45.817 196.851 45.817 197.908Z" fill="#A8A1FF"/>
<path d="M3.81699 211.908C3.81699 212.962 2.96199 213.817 1.9085 213.817C0.851189 213.817 0 212.962 0 211.908C0 210.851 0.851189 210 1.9085 210C2.96199 210 3.81699 210.851 3.81699 211.908Z" fill="#A8A1FF"/>
<path d="M17.817 211.908C17.817 212.962 16.962 213.817 15.9085 213.817C14.8512 213.817 14 212.962 14 211.908C14 210.851 14.8512 210 15.9085 210C16.962 210 17.817 210.851 17.817 211.908Z" fill="#A8A1FF"/>
<path d="M31.817 211.908C31.817 212.962 30.962 213.817 29.9085 213.817C28.8512 213.817 28 212.962 28 211.908C28 210.851 28.8512 210 29.9085 210C30.962 210 31.817 210.851 31.817 211.908Z" fill="#A8A1FF"/>
<path d="M45.817 211.908C45.817 212.962 44.962 213.817 43.9085 213.817C42.8512 213.817 42 212.962 42 211.908C42 210.851 42.8512 210 43.9085 210C44.962 210 45.817 210.851 45.817 211.908Z" fill="#A8A1FF"/>
<path d="M3.81699 225.908C3.81699 226.962 2.96199 227.817 1.9085 227.817C0.851189 227.817 0 226.962 0 225.908C0 224.851 0.851189 224 1.9085 224C2.96199 224 3.81699 224.851 3.81699 225.908Z" fill="#A8A1FF"/>
<path d="M17.817 225.908C17.817 226.962 16.962 227.817 15.9085 227.817C14.8512 227.817 14 226.962 14 225.908C14 224.851 14.8512 224 15.9085 224C16.962 224 17.817 224.851 17.817 225.908Z" fill="#A8A1FF"/>
<path d="M31.817 225.908C31.817 226.962 30.962 227.817 29.9085 227.817C28.8512 227.817 28 226.962 28 225.908C28 224.851 28.8512 224 29.9085 224C30.962 224 31.817 224.851 31.817 225.908Z" fill="#A8A1FF"/>
<path d="M45.817 225.908C45.817 226.962 44.962 227.817 43.9085 227.817C42.8512 227.817 42 226.962 42 225.908C42 224.851 42.8512 224 43.9085 224C44.962 224 45.817 224.851 45.817 225.908Z" fill="#A8A1FF"/>
<path d="M3.81699 239.908C3.81699 240.962 2.96199 241.817 1.9085 241.817C0.851189 241.817 0 240.962 0 239.908C0 238.851 0.851189 238 1.9085 238C2.96199 238 3.81699 238.851 3.81699 239.908Z" fill="#A8A1FF"/>
<path d="M17.817 239.908C17.817 240.962 16.962 241.817 15.9085 241.817C14.8512 241.817 14 240.962 14 239.908C14 238.851 14.8512 238 15.9085 238C16.962 238 17.817 238.851 17.817 239.908Z" fill="#A8A1FF"/>
<path d="M31.817 239.908C31.817 240.962 30.962 241.817 29.9085 241.817C28.8512 241.817 28 240.962 28 239.908C28 238.851 28.8512 238 29.9085 238C30.962 238 31.817 238.851 31.817 239.908Z" fill="#A8A1FF"/>
<path d="M45.817 239.908C45.817 240.962 44.962 241.817 43.9085 241.817C42.8512 241.817 42 240.962 42 239.908C42 238.851 42.8512 238 43.9085 238C44.962 238 45.817 238.851 45.817 239.908Z" fill="#A8A1FF"/>
<path d="M59.817 239.908C59.817 240.962 58.962 241.817 57.9085 241.817C56.8512 241.817 56 240.962 56 239.908C56 238.851 56.8512 238 57.9085 238C58.962 238 59.817 238.851 59.817 239.908Z" fill="#A8A1FF"/>
<path d="M73.817 239.908C73.817 240.962 72.962 241.817 71.9085 241.817C70.8512 241.817 70 240.962 70 239.908C70 238.851 70.8512 238 71.9085 238C72.962 238 73.817 238.851 73.817 239.908Z" fill="#A8A1FF"/>
<path d="M87.817 239.908C87.817 240.962 86.962 241.817 85.9085 241.817C84.8512 241.817 84 240.962 84 239.908C84 238.851 84.8512 238 85.9085 238C86.962 238 87.817 238.851 87.817 239.908Z" fill="#A8A1FF"/>
<path d="M101.817 239.908C101.817 240.962 100.962 241.817 99.9085 241.817C98.8512 241.817 98 240.962 98 239.908C98 238.851 98.8512 238 99.9085 238C100.962 238 101.817 238.851 101.817 239.908Z" fill="#A8A1FF"/>
<path d="M3.81699 253.908C3.81699 254.962 2.96199 255.817 1.9085 255.817C0.851189 255.817 0 254.962 0 253.908C0 252.851 0.851189 252 1.9085 252C2.96199 252 3.81699 252.851 3.81699 253.908Z" fill="#A8A1FF"/>
<path d="M17.817 253.908C17.817 254.962 16.962 255.817 15.9085 255.817C14.8512 255.817 14 254.962 14 253.908C14 252.851 14.8512 252 15.9085 252C16.962 252 17.817 252.851 17.817 253.908Z" fill="#A8A1FF"/>
<path d="M31.817 253.908C31.817 254.962 30.962 255.817 29.9085 255.817C28.8512 255.817 28 254.962 28 253.908C28 252.851 28.8512 252 29.9085 252C30.962 252 31.817 252.851 31.817 253.908Z" fill="#A8A1FF"/>
<path d="M45.817 253.908C45.817 254.962 44.962 255.817 43.9085 255.817C42.8512 255.817 42 254.962 42 253.908C42 252.851 42.8512 252 43.9085 252C44.962 252 45.817 252.851 45.817 253.908Z" fill="#A8A1FF"/>
<path d="M59.817 253.908C59.817 254.962 58.962 255.817 57.9085 255.817C56.8512 255.817 56 254.962 56 253.908C56 252.851 56.8512 252 57.9085 252C58.962 252 59.817 252.851 59.817 253.908Z" fill="#A8A1FF"/>
<path d="M73.817 253.908C73.817 254.962 72.962 255.817 71.9085 255.817C70.8512 255.817 70 254.962 70 253.908C70 252.851 70.8512 252 71.9085 252C72.962 252 73.817 252.851 73.817 253.908Z" fill="#A8A1FF"/>
<path d="M87.817 253.908C87.817 254.962 86.962 255.817 85.9085 255.817C84.8512 255.817 84 254.962 84 253.908C84 252.851 84.8512 252 85.9085 252C86.962 252 87.817 252.851 87.817 253.908Z" fill="#A8A1FF"/>
<path d="M101.817 253.908C101.817 254.962 100.962 255.817 99.9085 255.817C98.8512 255.817 98 254.962 98 253.908C98 252.851 98.8512 252 99.9085 252C100.962 252 101.817 252.851 101.817 253.908Z" fill="#A8A1FF"/>
<path d="M3.81699 267.908C3.81699 268.962 2.96199 269.817 1.9085 269.817C0.851189 269.817 0 268.962 0 267.908C0 266.851 0.851189 266 1.9085 266C2.96199 266 3.81699 266.851 3.81699 267.908Z" fill="#A8A1FF"/>
<path d="M17.817 267.908C17.817 268.962 16.962 269.817 15.9085 269.817C14.8512 269.817 14 268.962 14 267.908C14 266.851 14.8512 266 15.9085 266C16.962 266 17.817 266.851 17.817 267.908Z" fill="#A8A1FF"/>
<path d="M31.817 267.908C31.817 268.962 30.962 269.817 29.9085 269.817C28.8512 269.817 28 268.962 28 267.908C28 266.851 28.8512 266 29.9085 266C30.962 266 31.817 266.851 31.817 267.908Z" fill="#A8A1FF"/>
<path d="M45.817 267.908C45.817 268.962 44.962 269.817 43.9085 269.817C42.8512 269.817 42 268.962 42 267.908C42 266.851 42.8512 266 43.9085 266C44.962 266 45.817 266.851 45.817 267.908Z" fill="#A8A1FF"/>
<path d="M59.817 267.908C59.817 268.962 58.962 269.817 57.9085 269.817C56.8512 269.817 56 268.962 56 267.908C56 266.851 56.8512 266 57.9085 266C58.962 266 59.817 266.851 59.817 267.908Z" fill="#A8A1FF"/>
<path d="M73.817 267.908C73.817 268.962 72.962 269.817 71.9085 269.817C70.8512 269.817 70 268.962 70 267.908C70 266.851 70.8512 266 71.9085 266C72.962 266 73.817 266.851 73.817 267.908Z" fill="#A8A1FF"/>
<path d="M87.817 267.908C87.817 268.962 86.962 269.817 85.9085 269.817C84.8512 269.817 84 268.962 84 267.908C84 266.851 84.8512 266 85.9085 266C86.962 266 87.817 266.851 87.817 267.908Z" fill="#A8A1FF"/>
<path d="M101.817 267.908C101.817 268.962 100.962 269.817 99.9085 269.817C98.8512 269.817 98 268.962 98 267.908C98 266.851 98.8512 266 99.9085 266C100.962 266 101.817 266.851 101.817 267.908Z" fill="#A8A1FF"/>
<path d="M3.81699 281.908C3.81699 282.962 2.96199 283.817 1.9085 283.817C0.851189 283.817 0 282.962 0 281.908C0 280.851 0.851189 280 1.9085 280C2.96199 280 3.81699 280.851 3.81699 281.908Z" fill="#A8A1FF"/>
<path d="M17.817 281.908C17.817 282.962 16.962 283.817 15.9085 283.817C14.8512 283.817 14 282.962 14 281.908C14 280.851 14.8512 280 15.9085 280C16.962 280 17.817 280.851 17.817 281.908Z" fill="#A8A1FF"/>
<path d="M31.817 281.908C31.817 282.962 30.962 283.817 29.9085 283.817C28.8512 283.817 28 282.962 28 281.908C28 280.851 28.8512 280 29.9085 280C30.962 280 31.817 280.851 31.817 281.908Z" fill="#A8A1FF"/>
<path d="M45.817 281.908C45.817 282.962 44.962 283.817 43.9085 283.817C42.8512 283.817 42 282.962 42 281.908C42 280.851 42.8512 280 43.9085 280C44.962 280 45.817 280.851 45.817 281.908Z" fill="#A8A1FF"/>
<path d="M59.817 281.908C59.817 282.962 58.962 283.817 57.9085 283.817C56.8512 283.817 56 282.962 56 281.908C56 280.851 56.8512 280 57.9085 280C58.962 280 59.817 280.851 59.817 281.908Z" fill="#A8A1FF"/>
<path d="M73.817 281.908C73.817 282.962 72.962 283.817 71.9085 283.817C70.8512 283.817 70 282.962 70 281.908C70 280.851 70.8512 280 71.9085 280C72.962 280 73.817 280.851 73.817 281.908Z" fill="#A8A1FF"/>
<path d="M87.817 281.908C87.817 282.962 86.962 283.817 85.9085 283.817C84.8512 283.817 84 282.962 84 281.908C84 280.851 84.8512 280 85.9085 280C86.962 280 87.817 280.851 87.817 281.908Z" fill="#A8A1FF"/>
<path d="M101.817 281.908C101.817 282.962 100.962 283.817 99.9085 283.817C98.8512 283.817 98 282.962 98 281.908C98 280.851 98.8512 280 99.9085 280C100.962 280 101.817 280.851 101.817 281.908Z" fill="#A8A1FF"/>
</g>
</g>
<defs>
<clipPath id="clip0_424_1182">
<rect width="400" height="288" fill="white"/>
</clipPath>
</defs>
</svg>
