<svg width="104" height="288" viewBox="0 0 104 288" fill="none" xmlns="http://www.w3.org/2000/svg">
<mask id="mask0_424_1183" style="mask-type:alpha" maskUnits="userSpaceOnUse" x="0" y="0" width="104" height="288">
<rect width="104" height="288" fill="#D9D9D9"/>
</mask>
<g mask="url(#mask0_424_1183)">
<g clip-path="url(#clip0_424_1183)">
<path d="M108 0H-292V288H108V0Z" fill="#11100E"/>
<path d="M5.81699 1.9085C5.81699 2.96199 4.96199 3.81699 3.9085 3.81699C2.85119 3.81699 2 2.96199 2 1.9085C2 0.851189 2.85119 0 3.9085 0C4.96199 0 5.81699 0.851189 5.81699 1.9085Z" fill="#A8A1FF"/>
<path d="M19.817 1.9085C19.817 2.96199 18.962 3.81699 17.9085 3.81699C16.8512 3.81699 16 2.96199 16 1.9085C16 0.851189 16.8512 0 17.9085 0C18.962 0 19.817 0.851189 19.817 1.9085Z" fill="#A8A1FF"/>
<path d="M33.817 1.9085C33.817 2.96199 32.962 3.81699 31.9085 3.81699C30.8512 3.81699 30 2.96199 30 1.9085C30 0.851189 30.8512 0 31.9085 0C32.962 0 33.817 0.851189 33.817 1.9085Z" fill="#A8A1FF"/>
<path d="M47.817 1.9085C47.817 2.96199 46.962 3.81699 45.9085 3.81699C44.8512 3.81699 44 2.96199 44 1.9085C44 0.851189 44.8512 0 45.9085 0C46.962 0 47.817 0.851189 47.817 1.9085Z" fill="#A8A1FF"/>
<path d="M61.817 1.9085C61.817 2.96199 60.962 3.81699 59.9085 3.81699C58.8512 3.81699 58 2.96199 58 1.9085C58 0.851189 58.8512 0 59.9085 0C60.962 0 61.817 0.851189 61.817 1.9085Z" fill="#A8A1FF"/>
<path d="M75.817 1.9085C75.817 2.96199 74.962 3.81699 73.9085 3.81699C72.8512 3.81699 72 2.96199 72 1.9085C72 0.851189 72.8512 0 73.9085 0C74.962 0 75.817 0.851189 75.817 1.9085Z" fill="#A8A1FF"/>
<path d="M89.817 1.9085C89.817 2.96199 88.962 3.81699 87.9085 3.81699C86.8512 3.81699 86 2.96199 86 1.9085C86 0.851189 86.8512 0 87.9085 0C88.962 0 89.817 0.851189 89.817 1.9085Z" fill="#A8A1FF"/>
<path d="M103.817 1.9085C103.817 2.96199 102.962 3.81699 101.908 3.81699C100.851 3.81699 100 2.96199 100 1.9085C100 0.851189 100.851 0 101.908 0C102.962 0 103.817 0.851189 103.817 1.9085Z" fill="#A8A1FF"/>
<path d="M5.81699 15.9085C5.81699 16.962 4.96199 17.817 3.9085 17.817C2.85119 17.817 2 16.962 2 15.9085C2 14.8512 2.85119 14 3.9085 14C4.96199 14 5.81699 14.8512 5.81699 15.9085Z" fill="#A8A1FF"/>
<path d="M19.817 15.9085C19.817 16.962 18.962 17.817 17.9085 17.817C16.8512 17.817 16 16.962 16 15.9085C16 14.8512 16.8512 14 17.9085 14C18.962 14 19.817 14.8512 19.817 15.9085Z" fill="#A8A1FF"/>
<path d="M33.817 15.9085C33.817 16.962 32.962 17.817 31.9085 17.817C30.8512 17.817 30 16.962 30 15.9085C30 14.8512 30.8512 14 31.9085 14C32.962 14 33.817 14.8512 33.817 15.9085Z" fill="#A8A1FF"/>
<path d="M47.817 15.9085C47.817 16.962 46.962 17.817 45.9085 17.817C44.8512 17.817 44 16.962 44 15.9085C44 14.8512 44.8512 14 45.9085 14C46.962 14 47.817 14.8512 47.817 15.9085Z" fill="#A8A1FF"/>
<path d="M61.817 15.9085C61.817 16.962 60.962 17.817 59.9085 17.817C58.8512 17.817 58 16.962 58 15.9085C58 14.8512 58.8512 14 59.9085 14C60.962 14 61.817 14.8512 61.817 15.9085Z" fill="#A8A1FF"/>
<path d="M75.817 15.9085C75.817 16.962 74.962 17.817 73.9085 17.817C72.8512 17.817 72 16.962 72 15.9085C72 14.8512 72.8512 14 73.9085 14C74.962 14 75.817 14.8512 75.817 15.9085Z" fill="#A8A1FF"/>
<path d="M89.817 15.9085C89.817 16.962 88.962 17.817 87.9085 17.817C86.8512 17.817 86 16.962 86 15.9085C86 14.8512 86.8512 14 87.9085 14C88.962 14 89.817 14.8512 89.817 15.9085Z" fill="#A8A1FF"/>
<path d="M103.817 15.9085C103.817 16.962 102.962 17.817 101.908 17.817C100.851 17.817 100 16.962 100 15.9085C100 14.8512 100.851 14 101.908 14C102.962 14 103.817 14.8512 103.817 15.9085Z" fill="#A8A1FF"/>
<path d="M5.81699 29.9085C5.81699 30.962 4.96199 31.817 3.9085 31.817C2.85119 31.817 2 30.962 2 29.9085C2 28.8512 2.85119 28 3.9085 28C4.96199 28 5.81699 28.8512 5.81699 29.9085Z" fill="#A8A1FF"/>
<path d="M19.817 29.9085C19.817 30.962 18.962 31.817 17.9085 31.817C16.8512 31.817 16 30.962 16 29.9085C16 28.8512 16.8512 28 17.9085 28C18.962 28 19.817 28.8512 19.817 29.9085Z" fill="#A8A1FF"/>
<path d="M33.817 29.9085C33.817 30.962 32.962 31.817 31.9085 31.817C30.8512 31.817 30 30.962 30 29.9085C30 28.8512 30.8512 28 31.9085 28C32.962 28 33.817 28.8512 33.817 29.9085Z" fill="#A8A1FF"/>
<path d="M47.817 29.9085C47.817 30.962 46.962 31.817 45.9085 31.817C44.8512 31.817 44 30.962 44 29.9085C44 28.8512 44.8512 28 45.9085 28C46.962 28 47.817 28.8512 47.817 29.9085Z" fill="#A8A1FF"/>
<path d="M61.817 29.9085C61.817 30.962 60.962 31.817 59.9085 31.817C58.8512 31.817 58 30.962 58 29.9085C58 28.8512 58.8512 28 59.9085 28C60.962 28 61.817 28.8512 61.817 29.9085Z" fill="#A8A1FF"/>
<path d="M75.817 29.9085C75.817 30.962 74.962 31.817 73.9085 31.817C72.8512 31.817 72 30.962 72 29.9085C72 28.8512 72.8512 28 73.9085 28C74.962 28 75.817 28.8512 75.817 29.9085Z" fill="#A8A1FF"/>
<path d="M89.817 29.9085C89.817 30.962 88.962 31.817 87.9085 31.817C86.8512 31.817 86 30.962 86 29.9085C86 28.8512 86.8512 28 87.9085 28C88.962 28 89.817 28.8512 89.817 29.9085Z" fill="#A8A1FF"/>
<path d="M103.817 29.9085C103.817 30.962 102.962 31.817 101.908 31.817C100.851 31.817 100 30.962 100 29.9085C100 28.8512 100.851 28 101.908 28C102.962 28 103.817 28.8512 103.817 29.9085Z" fill="#A8A1FF"/>
<path d="M5.81699 43.9085C5.81699 44.962 4.96199 45.817 3.9085 45.817C2.85119 45.817 2 44.962 2 43.9085C2 42.8512 2.85119 42 3.9085 42C4.96199 42 5.81699 42.8512 5.81699 43.9085Z" fill="#A8A1FF"/>
<path d="M19.817 43.9085C19.817 44.962 18.962 45.817 17.9085 45.817C16.8512 45.817 16 44.962 16 43.9085C16 42.8512 16.8512 42 17.9085 42C18.962 42 19.817 42.8512 19.817 43.9085Z" fill="#A8A1FF"/>
<path d="M33.817 43.9085C33.817 44.962 32.962 45.817 31.9085 45.817C30.8512 45.817 30 44.962 30 43.9085C30 42.8512 30.8512 42 31.9085 42C32.962 42 33.817 42.8512 33.817 43.9085Z" fill="#A8A1FF"/>
<path d="M47.817 43.9085C47.817 44.962 46.962 45.817 45.9085 45.817C44.8512 45.817 44 44.962 44 43.9085C44 42.8512 44.8512 42 45.9085 42C46.962 42 47.817 42.8512 47.817 43.9085Z" fill="#A8A1FF"/>
<path d="M61.817 43.9085C61.817 44.962 60.962 45.817 59.9085 45.817C58.8512 45.817 58 44.962 58 43.9085C58 42.8512 58.8512 42 59.9085 42C60.962 42 61.817 42.8512 61.817 43.9085Z" fill="#A8A1FF"/>
<path d="M75.817 43.9085C75.817 44.962 74.962 45.817 73.9085 45.817C72.8512 45.817 72 44.962 72 43.9085C72 42.8512 72.8512 42 73.9085 42C74.962 42 75.817 42.8512 75.817 43.9085Z" fill="#A8A1FF"/>
<path d="M89.817 43.9085C89.817 44.962 88.962 45.817 87.9085 45.817C86.8512 45.817 86 44.962 86 43.9085C86 42.8512 86.8512 42 87.9085 42C88.962 42 89.817 42.8512 89.817 43.9085Z" fill="#A8A1FF"/>
<path d="M103.817 43.9085C103.817 44.962 102.962 45.817 101.908 45.817C100.851 45.817 100 44.962 100 43.9085C100 42.8512 100.851 42 101.908 42C102.962 42 103.817 42.8512 103.817 43.9085Z" fill="#A8A1FF"/>
<path d="M61.817 57.9085C61.817 58.962 60.962 59.817 59.9085 59.817C58.8512 59.817 58 58.962 58 57.9085C58 56.8512 58.8512 56 59.9085 56C60.962 56 61.817 56.8512 61.817 57.9085Z" fill="#A8A1FF"/>
<path d="M75.817 57.9085C75.817 58.962 74.962 59.817 73.9085 59.817C72.8512 59.817 72 58.962 72 57.9085C72 56.8512 72.8512 56 73.9085 56C74.962 56 75.817 56.8512 75.817 57.9085Z" fill="#A8A1FF"/>
<path d="M89.817 57.9085C89.817 58.962 88.962 59.817 87.9085 59.817C86.8512 59.817 86 58.962 86 57.9085C86 56.8512 86.8512 56 87.9085 56C88.962 56 89.817 56.8512 89.817 57.9085Z" fill="#A8A1FF"/>
<path d="M103.817 57.9085C103.817 58.962 102.962 59.817 101.908 59.817C100.851 59.817 100 58.962 100 57.9085C100 56.8512 100.851 56 101.908 56C102.962 56 103.817 56.8512 103.817 57.9085Z" fill="#A8A1FF"/>
<path d="M61.817 71.9085C61.817 72.962 60.962 73.817 59.9085 73.817C58.8512 73.817 58 72.962 58 71.9085C58 70.8512 58.8512 70 59.9085 70C60.962 70 61.817 70.8512 61.817 71.9085Z" fill="#A8A1FF"/>
<path d="M75.817 71.9085C75.817 72.962 74.962 73.817 73.9085 73.817C72.8512 73.817 72 72.962 72 71.9085C72 70.8512 72.8512 70 73.9085 70C74.962 70 75.817 70.8512 75.817 71.9085Z" fill="#A8A1FF"/>
<path d="M89.817 71.9085C89.817 72.962 88.962 73.817 87.9085 73.817C86.8512 73.817 86 72.962 86 71.9085C86 70.8512 86.8512 70 87.9085 70C88.962 70 89.817 70.8512 89.817 71.9085Z" fill="#A8A1FF"/>
<path d="M103.817 71.9085C103.817 72.962 102.962 73.817 101.908 73.817C100.851 73.817 100 72.962 100 71.9085C100 70.8512 100.851 70 101.908 70C102.962 70 103.817 70.8512 103.817 71.9085Z" fill="#A8A1FF"/>
<path d="M61.817 85.9085C61.817 86.962 60.962 87.817 59.9085 87.817C58.8512 87.817 58 86.962 58 85.9085C58 84.8512 58.8512 84 59.9085 84C60.962 84 61.817 84.8512 61.817 85.9085Z" fill="#A8A1FF"/>
<path d="M75.817 85.9085C75.817 86.962 74.962 87.817 73.9085 87.817C72.8512 87.817 72 86.962 72 85.9085C72 84.8512 72.8512 84 73.9085 84C74.962 84 75.817 84.8512 75.817 85.9085Z" fill="#A8A1FF"/>
<path d="M89.817 85.9085C89.817 86.962 88.962 87.817 87.9085 87.817C86.8512 87.817 86 86.962 86 85.9085C86 84.8512 86.8512 84 87.9085 84C88.962 84 89.817 84.8512 89.817 85.9085Z" fill="#A8A1FF"/>
<path d="M103.817 85.9085C103.817 86.962 102.962 87.817 101.908 87.817C100.851 87.817 100 86.962 100 85.9085C100 84.8512 100.851 84 101.908 84C102.962 84 103.817 84.8512 103.817 85.9085Z" fill="#A8A1FF"/>
<path d="M61.817 99.9085C61.817 100.962 60.962 101.817 59.9085 101.817C58.8512 101.817 58 100.962 58 99.9085C58 98.8512 58.8512 98 59.9085 98C60.962 98 61.817 98.8512 61.817 99.9085Z" fill="#A8A1FF"/>
<path d="M75.817 99.9085C75.817 100.962 74.962 101.817 73.9085 101.817C72.8512 101.817 72 100.962 72 99.9085C72 98.8512 72.8512 98 73.9085 98C74.962 98 75.817 98.8512 75.817 99.9085Z" fill="#A8A1FF"/>
<path d="M89.817 99.9085C89.817 100.962 88.962 101.817 87.9085 101.817C86.8512 101.817 86 100.962 86 99.9085C86 98.8512 86.8512 98 87.9085 98C88.962 98 89.817 98.8512 89.817 99.9085Z" fill="#A8A1FF"/>
<path d="M103.817 99.9085C103.817 100.962 102.962 101.817 101.908 101.817C100.851 101.817 100 100.962 100 99.9085C100 98.8512 100.851 98 101.908 98C102.962 98 103.817 98.8512 103.817 99.9085Z" fill="#A8A1FF"/>
<path d="M61.817 113.908C61.817 114.962 60.962 115.817 59.9085 115.817C58.8512 115.817 58 114.962 58 113.908C58 112.851 58.8512 112 59.9085 112C60.962 112 61.817 112.851 61.817 113.908Z" fill="#A8A1FF"/>
<path d="M75.817 113.908C75.817 114.962 74.962 115.817 73.9085 115.817C72.8512 115.817 72 114.962 72 113.908C72 112.851 72.8512 112 73.9085 112C74.962 112 75.817 112.851 75.817 113.908Z" fill="#A8A1FF"/>
<path d="M89.817 113.908C89.817 114.962 88.962 115.817 87.9085 115.817C86.8512 115.817 86 114.962 86 113.908C86 112.851 86.8512 112 87.9085 112C88.962 112 89.817 112.851 89.817 113.908Z" fill="#A8A1FF"/>
<path d="M103.817 113.908C103.817 114.962 102.962 115.817 101.908 115.817C100.851 115.817 100 114.962 100 113.908C100 112.851 100.851 112 101.908 112C102.962 112 103.817 112.851 103.817 113.908Z" fill="#A8A1FF"/>
<path d="M61.817 127.908C61.817 128.962 60.962 129.817 59.9085 129.817C58.8512 129.817 58 128.962 58 127.908C58 126.851 58.8512 126 59.9085 126C60.962 126 61.817 126.851 61.817 127.908Z" fill="#A8A1FF"/>
<path d="M75.817 127.908C75.817 128.962 74.962 129.817 73.9085 129.817C72.8512 129.817 72 128.962 72 127.908C72 126.851 72.8512 126 73.9085 126C74.962 126 75.817 126.851 75.817 127.908Z" fill="#A8A1FF"/>
<path d="M89.817 127.908C89.817 128.962 88.962 129.817 87.9085 129.817C86.8512 129.817 86 128.962 86 127.908C86 126.851 86.8512 126 87.9085 126C88.962 126 89.817 126.851 89.817 127.908Z" fill="#A8A1FF"/>
<path d="M103.817 127.908C103.817 128.962 102.962 129.817 101.908 129.817C100.851 129.817 100 128.962 100 127.908C100 126.851 100.851 126 101.908 126C102.962 126 103.817 126.851 103.817 127.908Z" fill="#A8A1FF"/>
<path d="M61.817 141.908C61.817 142.962 60.962 143.817 59.9085 143.817C58.8512 143.817 58 142.962 58 141.908C58 140.851 58.8512 140 59.9085 140C60.962 140 61.817 140.851 61.817 141.908Z" fill="#A8A1FF"/>
<path d="M75.817 141.908C75.817 142.962 74.962 143.817 73.9085 143.817C72.8512 143.817 72 142.962 72 141.908C72 140.851 72.8512 140 73.9085 140C74.962 140 75.817 140.851 75.817 141.908Z" fill="#A8A1FF"/>
<path d="M89.817 141.908C89.817 142.962 88.962 143.817 87.9085 143.817C86.8512 143.817 86 142.962 86 141.908C86 140.851 86.8512 140 87.9085 140C88.962 140 89.817 140.851 89.817 141.908Z" fill="#A8A1FF"/>
<path d="M103.817 141.908C103.817 142.962 102.962 143.817 101.908 143.817C100.851 143.817 100 142.962 100 141.908C100 140.851 100.851 140 101.908 140C102.962 140 103.817 140.851 103.817 141.908Z" fill="#A8A1FF"/>
<path d="M61.817 155.908C61.817 156.962 60.962 157.817 59.9085 157.817C58.8512 157.817 58 156.962 58 155.908C58 154.851 58.8512 154 59.9085 154C60.962 154 61.817 154.851 61.817 155.908Z" fill="#A8A1FF"/>
<path d="M75.817 155.908C75.817 156.962 74.962 157.817 73.9085 157.817C72.8512 157.817 72 156.962 72 155.908C72 154.851 72.8512 154 73.9085 154C74.962 154 75.817 154.851 75.817 155.908Z" fill="#A8A1FF"/>
<path d="M89.817 155.908C89.817 156.962 88.962 157.817 87.9085 157.817C86.8512 157.817 86 156.962 86 155.908C86 154.851 86.8512 154 87.9085 154C88.962 154 89.817 154.851 89.817 155.908Z" fill="#A8A1FF"/>
<path d="M103.817 155.908C103.817 156.962 102.962 157.817 101.908 157.817C100.851 157.817 100 156.962 100 155.908C100 154.851 100.851 154 101.908 154C102.962 154 103.817 154.851 103.817 155.908Z" fill="#A8A1FF"/>
<path d="M61.817 169.908C61.817 170.962 60.962 171.817 59.9085 171.817C58.8512 171.817 58 170.962 58 169.908C58 168.851 58.8512 168 59.9085 168C60.962 168 61.817 168.851 61.817 169.908Z" fill="#A8A1FF"/>
<path d="M75.817 169.908C75.817 170.962 74.962 171.817 73.9085 171.817C72.8512 171.817 72 170.962 72 169.908C72 168.851 72.8512 168 73.9085 168C74.962 168 75.817 168.851 75.817 169.908Z" fill="#A8A1FF"/>
<path d="M89.817 169.908C89.817 170.962 88.962 171.817 87.9085 171.817C86.8512 171.817 86 170.962 86 169.908C86 168.851 86.8512 168 87.9085 168C88.962 168 89.817 168.851 89.817 169.908Z" fill="#A8A1FF"/>
<path d="M103.817 169.908C103.817 170.962 102.962 171.817 101.908 171.817C100.851 171.817 100 170.962 100 169.908C100 168.851 100.851 168 101.908 168C102.962 168 103.817 168.851 103.817 169.908Z" fill="#A8A1FF"/>
<path d="M61.817 183.908C61.817 184.962 60.962 185.817 59.9085 185.817C58.8512 185.817 58 184.962 58 183.908C58 182.851 58.8512 182 59.9085 182C60.962 182 61.817 182.851 61.817 183.908Z" fill="#A8A1FF"/>
<path d="M75.817 183.908C75.817 184.962 74.962 185.817 73.9085 185.817C72.8512 185.817 72 184.962 72 183.908C72 182.851 72.8512 182 73.9085 182C74.962 182 75.817 182.851 75.817 183.908Z" fill="#A8A1FF"/>
<path d="M89.817 183.908C89.817 184.962 88.962 185.817 87.9085 185.817C86.8512 185.817 86 184.962 86 183.908C86 182.851 86.8512 182 87.9085 182C88.962 182 89.817 182.851 89.817 183.908Z" fill="#A8A1FF"/>
<path d="M103.817 183.908C103.817 184.962 102.962 185.817 101.908 185.817C100.851 185.817 100 184.962 100 183.908C100 182.851 100.851 182 101.908 182C102.962 182 103.817 182.851 103.817 183.908Z" fill="#A8A1FF"/>
<path d="M61.817 197.908C61.817 198.962 60.962 199.817 59.9085 199.817C58.8512 199.817 58 198.962 58 197.908C58 196.851 58.8512 196 59.9085 196C60.962 196 61.817 196.851 61.817 197.908Z" fill="#A8A1FF"/>
<path d="M75.817 197.908C75.817 198.962 74.962 199.817 73.9085 199.817C72.8512 199.817 72 198.962 72 197.908C72 196.851 72.8512 196 73.9085 196C74.962 196 75.817 196.851 75.817 197.908Z" fill="#A8A1FF"/>
<path d="M89.817 197.908C89.817 198.962 88.962 199.817 87.9085 199.817C86.8512 199.817 86 198.962 86 197.908C86 196.851 86.8512 196 87.9085 196C88.962 196 89.817 196.851 89.817 197.908Z" fill="#A8A1FF"/>
<path d="M103.817 197.908C103.817 198.962 102.962 199.817 101.908 199.817C100.851 199.817 100 198.962 100 197.908C100 196.851 100.851 196 101.908 196C102.962 196 103.817 196.851 103.817 197.908Z" fill="#A8A1FF"/>
<path d="M61.817 211.908C61.817 212.962 60.962 213.817 59.9085 213.817C58.8512 213.817 58 212.962 58 211.908C58 210.851 58.8512 210 59.9085 210C60.962 210 61.817 210.851 61.817 211.908Z" fill="#A8A1FF"/>
<path d="M75.817 211.908C75.817 212.962 74.962 213.817 73.9085 213.817C72.8512 213.817 72 212.962 72 211.908C72 210.851 72.8512 210 73.9085 210C74.962 210 75.817 210.851 75.817 211.908Z" fill="#A8A1FF"/>
<path d="M89.817 211.908C89.817 212.962 88.962 213.817 87.9085 213.817C86.8512 213.817 86 212.962 86 211.908C86 210.851 86.8512 210 87.9085 210C88.962 210 89.817 210.851 89.817 211.908Z" fill="#A8A1FF"/>
<path d="M103.817 211.908C103.817 212.962 102.962 213.817 101.908 213.817C100.851 213.817 100 212.962 100 211.908C100 210.851 100.851 210 101.908 210C102.962 210 103.817 210.851 103.817 211.908Z" fill="#A8A1FF"/>
<path d="M61.817 225.908C61.817 226.962 60.962 227.817 59.9085 227.817C58.8512 227.817 58 226.962 58 225.908C58 224.851 58.8512 224 59.9085 224C60.962 224 61.817 224.851 61.817 225.908Z" fill="#A8A1FF"/>
<path d="M75.817 225.908C75.817 226.962 74.962 227.817 73.9085 227.817C72.8512 227.817 72 226.962 72 225.908C72 224.851 72.8512 224 73.9085 224C74.962 224 75.817 224.851 75.817 225.908Z" fill="#A8A1FF"/>
<path d="M89.817 225.908C89.817 226.962 88.962 227.817 87.9085 227.817C86.8512 227.817 86 226.962 86 225.908C86 224.851 86.8512 224 87.9085 224C88.962 224 89.817 224.851 89.817 225.908Z" fill="#A8A1FF"/>
<path d="M103.817 225.908C103.817 226.962 102.962 227.817 101.908 227.817C100.851 227.817 100 226.962 100 225.908C100 224.851 100.851 224 101.908 224C102.962 224 103.817 224.851 103.817 225.908Z" fill="#A8A1FF"/>
<path d="M5.81699 239.908C5.81699 240.962 4.96199 241.817 3.9085 241.817C2.85119 241.817 2 240.962 2 239.908C2 238.851 2.85119 238 3.9085 238C4.96199 238 5.81699 238.851 5.81699 239.908Z" fill="#A8A1FF"/>
<path d="M19.817 239.908C19.817 240.962 18.962 241.817 17.9085 241.817C16.8512 241.817 16 240.962 16 239.908C16 238.851 16.8512 238 17.9085 238C18.962 238 19.817 238.851 19.817 239.908Z" fill="#A8A1FF"/>
<path d="M33.817 239.908C33.817 240.962 32.962 241.817 31.9085 241.817C30.8512 241.817 30 240.962 30 239.908C30 238.851 30.8512 238 31.9085 238C32.962 238 33.817 238.851 33.817 239.908Z" fill="#A8A1FF"/>
<path d="M47.817 239.908C47.817 240.962 46.962 241.817 45.9085 241.817C44.8512 241.817 44 240.962 44 239.908C44 238.851 44.8512 238 45.9085 238C46.962 238 47.817 238.851 47.817 239.908Z" fill="#A8A1FF"/>
<path d="M61.817 239.908C61.817 240.962 60.962 241.817 59.9085 241.817C58.8512 241.817 58 240.962 58 239.908C58 238.851 58.8512 238 59.9085 238C60.962 238 61.817 238.851 61.817 239.908Z" fill="#A8A1FF"/>
<path d="M75.817 239.908C75.817 240.962 74.962 241.817 73.9085 241.817C72.8512 241.817 72 240.962 72 239.908C72 238.851 72.8512 238 73.9085 238C74.962 238 75.817 238.851 75.817 239.908Z" fill="#A8A1FF"/>
<path d="M89.817 239.908C89.817 240.962 88.962 241.817 87.9085 241.817C86.8512 241.817 86 240.962 86 239.908C86 238.851 86.8512 238 87.9085 238C88.962 238 89.817 238.851 89.817 239.908Z" fill="#A8A1FF"/>
<path d="M103.817 239.908C103.817 240.962 102.962 241.817 101.908 241.817C100.851 241.817 100 240.962 100 239.908C100 238.851 100.851 238 101.908 238C102.962 238 103.817 238.851 103.817 239.908Z" fill="#A8A1FF"/>
<path d="M5.81699 253.908C5.81699 254.962 4.96199 255.817 3.9085 255.817C2.85119 255.817 2 254.962 2 253.908C2 252.851 2.85119 252 3.9085 252C4.96199 252 5.81699 252.851 5.81699 253.908Z" fill="#A8A1FF"/>
<path d="M19.817 253.908C19.817 254.962 18.962 255.817 17.9085 255.817C16.8512 255.817 16 254.962 16 253.908C16 252.851 16.8512 252 17.9085 252C18.962 252 19.817 252.851 19.817 253.908Z" fill="#A8A1FF"/>
<path d="M33.817 253.908C33.817 254.962 32.962 255.817 31.9085 255.817C30.8512 255.817 30 254.962 30 253.908C30 252.851 30.8512 252 31.9085 252C32.962 252 33.817 252.851 33.817 253.908Z" fill="#A8A1FF"/>
<path d="M47.817 253.908C47.817 254.962 46.962 255.817 45.9085 255.817C44.8512 255.817 44 254.962 44 253.908C44 252.851 44.8512 252 45.9085 252C46.962 252 47.817 252.851 47.817 253.908Z" fill="#A8A1FF"/>
<path d="M61.817 253.908C61.817 254.962 60.962 255.817 59.9085 255.817C58.8512 255.817 58 254.962 58 253.908C58 252.851 58.8512 252 59.9085 252C60.962 252 61.817 252.851 61.817 253.908Z" fill="#A8A1FF"/>
<path d="M75.817 253.908C75.817 254.962 74.962 255.817 73.9085 255.817C72.8512 255.817 72 254.962 72 253.908C72 252.851 72.8512 252 73.9085 252C74.962 252 75.817 252.851 75.817 253.908Z" fill="#A8A1FF"/>
<path d="M89.817 253.908C89.817 254.962 88.962 255.817 87.9085 255.817C86.8512 255.817 86 254.962 86 253.908C86 252.851 86.8512 252 87.9085 252C88.962 252 89.817 252.851 89.817 253.908Z" fill="#A8A1FF"/>
<path d="M103.817 253.908C103.817 254.962 102.962 255.817 101.908 255.817C100.851 255.817 100 254.962 100 253.908C100 252.851 100.851 252 101.908 252C102.962 252 103.817 252.851 103.817 253.908Z" fill="#A8A1FF"/>
<path d="M5.81699 267.908C5.81699 268.962 4.96199 269.817 3.9085 269.817C2.85119 269.817 2 268.962 2 267.908C2 266.851 2.85119 266 3.9085 266C4.96199 266 5.81699 266.851 5.81699 267.908Z" fill="#A8A1FF"/>
<path d="M19.817 267.908C19.817 268.962 18.962 269.817 17.9085 269.817C16.8512 269.817 16 268.962 16 267.908C16 266.851 16.8512 266 17.9085 266C18.962 266 19.817 266.851 19.817 267.908Z" fill="#A8A1FF"/>
<path d="M33.817 267.908C33.817 268.962 32.962 269.817 31.9085 269.817C30.8512 269.817 30 268.962 30 267.908C30 266.851 30.8512 266 31.9085 266C32.962 266 33.817 266.851 33.817 267.908Z" fill="#A8A1FF"/>
<path d="M47.817 267.908C47.817 268.962 46.962 269.817 45.9085 269.817C44.8512 269.817 44 268.962 44 267.908C44 266.851 44.8512 266 45.9085 266C46.962 266 47.817 266.851 47.817 267.908Z" fill="#A8A1FF"/>
<path d="M61.817 267.908C61.817 268.962 60.962 269.817 59.9085 269.817C58.8512 269.817 58 268.962 58 267.908C58 266.851 58.8512 266 59.9085 266C60.962 266 61.817 266.851 61.817 267.908Z" fill="#A8A1FF"/>
<path d="M75.817 267.908C75.817 268.962 74.962 269.817 73.9085 269.817C72.8512 269.817 72 268.962 72 267.908C72 266.851 72.8512 266 73.9085 266C74.962 266 75.817 266.851 75.817 267.908Z" fill="#A8A1FF"/>
<path d="M89.817 267.908C89.817 268.962 88.962 269.817 87.9085 269.817C86.8512 269.817 86 268.962 86 267.908C86 266.851 86.8512 266 87.9085 266C88.962 266 89.817 266.851 89.817 267.908Z" fill="#A8A1FF"/>
<path d="M103.817 267.908C103.817 268.962 102.962 269.817 101.908 269.817C100.851 269.817 100 268.962 100 267.908C100 266.851 100.851 266 101.908 266C102.962 266 103.817 266.851 103.817 267.908Z" fill="#A8A1FF"/>
<path d="M5.81699 281.908C5.81699 282.962 4.96199 283.817 3.9085 283.817C2.85119 283.817 2 282.962 2 281.908C2 280.851 2.85119 280 3.9085 280C4.96199 280 5.81699 280.851 5.81699 281.908Z" fill="#A8A1FF"/>
<path d="M19.817 281.908C19.817 282.962 18.962 283.817 17.9085 283.817C16.8512 283.817 16 282.962 16 281.908C16 280.851 16.8512 280 17.9085 280C18.962 280 19.817 280.851 19.817 281.908Z" fill="#A8A1FF"/>
<path d="M33.817 281.908C33.817 282.962 32.962 283.817 31.9085 283.817C30.8512 283.817 30 282.962 30 281.908C30 280.851 30.8512 280 31.9085 280C32.962 280 33.817 280.851 33.817 281.908Z" fill="#A8A1FF"/>
<path d="M47.817 281.908C47.817 282.962 46.962 283.817 45.9085 283.817C44.8512 283.817 44 282.962 44 281.908C44 280.851 44.8512 280 45.9085 280C46.962 280 47.817 280.851 47.817 281.908Z" fill="#A8A1FF"/>
<path d="M61.817 281.908C61.817 282.962 60.962 283.817 59.9085 283.817C58.8512 283.817 58 282.962 58 281.908C58 280.851 58.8512 280 59.9085 280C60.962 280 61.817 280.851 61.817 281.908Z" fill="#A8A1FF"/>
<path d="M75.817 281.908C75.817 282.962 74.962 283.817 73.9085 283.817C72.8512 283.817 72 282.962 72 281.908C72 280.851 72.8512 280 73.9085 280C74.962 280 75.817 280.851 75.817 281.908Z" fill="#A8A1FF"/>
<path d="M89.817 281.908C89.817 282.962 88.962 283.817 87.9085 283.817C86.8512 283.817 86 282.962 86 281.908C86 280.851 86.8512 280 87.9085 280C88.962 280 89.817 280.851 89.817 281.908Z" fill="#A8A1FF"/>
<path d="M103.817 281.908C103.817 282.962 102.962 283.817 101.908 283.817C100.851 283.817 100 282.962 100 281.908C100 280.851 100.851 280 101.908 280C102.962 280 103.817 280.851 103.817 281.908Z" fill="#A8A1FF"/>
</g>
</g>
<defs>
<clipPath id="clip0_424_1183">
<rect width="400" height="288" fill="white" transform="translate(-292)"/>
</clipPath>
</defs>
</svg>
